<svg width="200" height="200" viewBox="0 0 1024 1024" version="1.1" xmlns="http://www.w3.org/2000/svg"><path d="M856.746667 626.346667c-8.533333 5.12-18.773333 6.826667-27.306667 6.826666-22.186667 0-32.426667-8.533333-37.546667-25.6-3.413333-11.946667-8.533333-18.773333-17.066666-18.773333-13.653333 0-20.48 8.533333-20.48 22.186667 0 18.773333 8.533333 34.133333 23.893333 46.08 15.36 10.24 30.72 15.36 49.493333 15.36 20.48 0 39.253333-5.12 54.613334-17.066667 18.773333-11.946667 27.306667-29.013333 27.306666-49.493333 0-23.893333-10.24-40.96-29.013333-51.2 18.773333-10.24 27.306667-25.6 27.306667-42.666667 0-20.48-8.533333-35.84-25.6-47.786667-13.653333-8.533333-30.72-13.653333-51.2-13.653333-17.066667 0-30.72 5.12-44.373334 13.653333-15.36 10.24-23.893333 23.893333-23.893333 40.96 0 13.653333 6.826667 20.48 20.48 20.48 6.826667 0 13.653333-5.12 17.066667-17.066666 5.12-15.36 15.36-22.186667 30.72-22.186667 10.24 0 18.773333 1.706667 25.6 5.12 11.946667 5.12 11.946667 11.946667 11.946666 17.066667 0 6.826667-1.706667 15.36-17.066666 20.48-6.826667 1.706667-18.773333 5.12-35.84 5.12-20.48 1.706667-22.186667 11.946667-22.186667 18.773333 0 5.12 1.706667 18.773333 23.893333 18.773333 27.306667 0 37.546667 5.12 42.666667 8.533334 8.533333 6.826667 11.946667 15.36 11.946667 23.893333 0 10.24-5.12 17.066667-15.36 22.186667zM206.506667 430.08c-13.653333 10.24-25.6 22.186667-37.546667 32.426667-15.36 13.653333-25.6 23.893333-34.133333 34.133333-11.946667 15.36-18.773333 25.6-18.773334 32.426667 0 5.12 1.706667 18.773333 23.893334 18.773333h105.813333c13.653333 0 22.186667-6.826667 22.186667-18.773333 0-11.946667-8.533333-18.773333-22.186667-18.773334h-73.386667l23.893334-23.893333c5.12-5.12 18.773333-15.36 35.84-30.72 23.893333-20.48 35.84-40.96 35.84-61.44 0-18.773333-6.826667-35.84-22.186667-47.786667-13.653333-10.24-30.72-15.36-49.493333-15.36-22.186667 0-39.253333 6.826667-52.906667 20.48-15.36 13.653333-22.186667 29.013333-22.186667 47.786667 0 13.653333 6.826667 20.48 20.48 20.48 8.533333 0 15.36-6.826667 17.066667-20.48 1.706667-10.24 6.826667-17.066667 13.653333-22.186667 6.826667-5.12 15.36-8.533333 23.893334-8.533333 8.533333 0 18.773333 1.706667 23.893333 6.826667 6.826667 5.12 10.24 10.24 10.24 18.773333-1.706667 10.24-10.24 23.893333-23.893333 35.84zM494.933333 177.493333v143.36c0 13.653333 6.826667 20.48 18.773334 20.48 11.946667 0 20.48-6.826667 20.48-20.48V139.946667c0-11.946667-6.826667-18.773333-18.773334-18.773334-3.413333 0-6.826667 1.706667-18.773333 13.653334-6.826667 6.826667-11.946667 11.946667-17.066667 11.946666l-6.826666 1.706667c-15.36 3.413333-17.066667 11.946667-17.066667 17.066667 1.706667 15.36 17.066667 22.186667 39.253333 11.946666z" class="" fill="#FFFFFF"></path><path d="M267.946667 872.106667H105.813333c-56.32 0-102.4-46.08-102.4-102.4V296.96c0-56.32 46.08-102.4 102.4-102.4h162.133334c18.773333 0 34.133333 15.36 34.133333 34.133333s-15.36 34.133333-34.133333 34.133334H105.813333c-18.773333 0-34.133333 15.36-34.133333 34.133333v472.746667c0 18.773333 15.36 34.133333 34.133333 34.133333h162.133334c18.773333 0 34.133333 15.36 34.133333 34.133333s-15.36 34.133333-34.133333 34.133334zM593.92 872.106667h-162.133333c-56.32 0-102.4-46.08-102.4-102.4V109.226667c0-56.32 46.08-102.4 102.4-102.4h162.133333c56.32 0 102.4 46.08 102.4 102.4v660.48c0 56.32-46.08 102.4-102.4 102.4zM431.786667 75.093333c-18.773333 0-34.133333 15.36-34.133334 34.133334v660.48c0 18.773333 15.36 34.133333 34.133334 34.133333h162.133333c18.773333 0 34.133333-15.36 34.133333-34.133333V109.226667c0-18.773333-15.36-34.133333-34.133333-34.133334h-162.133333zM921.6 872.106667h-162.133333c-18.773333 0-34.133333-15.36-34.133334-34.133334s15.36-34.133333 34.133334-34.133333H921.6c18.773333 0 34.133333-15.36 34.133333-34.133333V416.426667c0-18.773333-15.36-34.133333-34.133333-34.133334h-162.133333c-18.773333 0-34.133333-15.36-34.133334-34.133333s15.36-34.133333 34.133334-34.133333H921.6c56.32 0 102.4 46.08 102.4 102.4v353.28c0 56.32-46.08 102.4-102.4 102.4zM989.866667 1015.466667H34.133333c-18.773333 0-34.133333-15.36-34.133333-34.133334s15.36-34.133333 34.133333-34.133333h955.733334c18.773333 0 34.133333 15.36 34.133333 34.133333s-15.36 34.133333-34.133333 34.133334z" fill="#FFFFFF" class=""></path></svg>