<svg width="200" height="200" viewBox="0 0 1024 1024" version="1.1" xmlns="http://www.w3.org/2000/svg"><path d="M858.3 792.5c35.4-29.4 57.9-73.7 57.9-123.1 0-88.2-71.8-160-160-160s-160 71.8-160 160c0 49.5 22.6 93.7 57.9 123.1-20.5 10.5-39.5 24.3-56.3 41.1-42.3 42.3-65.6 98.6-65.6 158.4 0 17.7 14.3 32 32 32s32-14.3 32-32c0-88.2 71.8-160 160-160s160 71.8 160 160c0 17.7 14.3 32 32 32s32-14.3 32-32c0-59.8-23.3-116.1-65.6-158.4-16.8-16.8-35.8-30.6-56.3-41.1z m-102.1-27.1c-52.9 0-96-43.1-96-96s43.1-96 96-96 96 43.1 96 96-43.1 96-96 96zM416 640c-17.7 0-32 14.3-32 32v320c0 17.7 14.3 32 32 32s32-14.3 32-32V672c0-17.7-14.3-32-32-32zM288 512c-17.7 0-32 14.3-32 32v448c0 17.7 14.3 32 32 32s32-14.3 32-32V544c0-17.7-14.3-32-32-32zM160 704c-17.7 0-32 14.3-32 32v256c0 17.7 14.3 32 32 32s32-14.3 32-32V736c0-17.7-14.3-32-32-32z" fill="#FFFFFF" class=""></path><path d="M1023.9 29.4c0-0.3 0-0.5-0.1-0.8 0-0.2-0.1-0.5-0.1-0.7 0-0.3-0.1-0.6-0.1-0.9 0-0.2-0.1-0.4-0.1-0.6-0.1-0.3-0.1-0.7-0.2-1 0-0.1-0.1-0.3-0.1-0.4-0.1-0.4-0.2-0.7-0.3-1.1 0-0.1-0.1-0.2-0.1-0.3l-0.3-1.2c0-0.1-0.1-0.3-0.1-0.4-0.1-0.4-0.2-0.7-0.4-1.1-0.1-0.2-0.2-0.4-0.3-0.7s-0.2-0.5-0.3-0.8c-0.1-0.3-0.3-0.6-0.4-0.9-0.1-0.2-0.1-0.3-0.2-0.5-0.2-0.3-0.3-0.7-0.5-1-0.1-0.1-0.1-0.3-0.2-0.4-0.2-0.3-0.4-0.6-0.5-0.9-0.1-0.1-0.2-0.3-0.3-0.4-0.2-0.3-0.3-0.5-0.5-0.8-0.1-0.2-0.2-0.4-0.3-0.5-0.2-0.2-0.3-0.5-0.5-0.7-0.1-0.2-0.3-0.4-0.4-0.6-0.1-0.2-0.3-0.4-0.5-0.6-0.2-0.2-0.4-0.5-0.5-0.7-0.1-0.2-0.3-0.3-0.4-0.5-0.2-0.2-0.4-0.5-0.6-0.7l-0.2-0.2-0.3-0.3-0.6-0.6c-0.2-0.2-0.4-0.4-0.6-0.5-0.2-0.2-0.4-0.3-0.6-0.5-0.2-0.2-0.4-0.4-0.7-0.6-0.2-0.1-0.3-0.3-0.5-0.4-0.3-0.2-0.5-0.4-0.8-0.6-0.1-0.1-0.3-0.2-0.4-0.3-0.3-0.2-0.6-0.4-0.8-0.6-0.1-0.1-0.3-0.2-0.4-0.3l-0.9-0.6c-0.1-0.1-0.3-0.2-0.4-0.3-0.3-0.2-0.6-0.3-0.9-0.5-0.2-0.1-0.3-0.2-0.5-0.3-0.3-0.1-0.6-0.3-0.8-0.4l-0.6-0.3c-0.2-0.1-0.5-0.2-0.8-0.3-0.2-0.1-0.5-0.2-0.7-0.3-0.2-0.1-0.4-0.2-0.7-0.3l-0.9-0.3c-0.2-0.1-0.4-0.1-0.6-0.2-0.3-0.1-0.6-0.2-1-0.3-0.2 0-0.3-0.1-0.5-0.1-0.3-0.1-0.7-0.2-1-0.3-0.2 0-0.3-0.1-0.5-0.1-0.3-0.1-0.7-0.1-1-0.2-0.2 0-0.4-0.1-0.5-0.1-0.3-0.1-0.6-0.1-1-0.1-0.2 0-0.4-0.1-0.6-0.1-0.3 0-0.6-0.1-0.9-0.1-0.3 0-0.5 0-0.8-0.1H799.9c-17.7 0-32 14.3-32 32s14.3 32 32 32h111.2L480.7 467.5l-170-170.1c-12.5-12.5-32.8-12.5-45.3 0l-256 256c-12.5 12.5-12.5 32.8 0 45.3 6.2 6.2 14.4 9.4 22.6 9.4s16.4-3.1 22.6-9.4l233.5-233.4 169.4 169.4c12.2 12.2 31.9 12.5 44.5 0.7l458-429.5v118.3c0 17.7 14.3 32 32 32s32-14.3 32-32V32v-0.2-0.9-0.7c0-0.3 0-0.6-0.1-0.8z" fill="#FFFFFF" class=""></path></svg>